<svg xmlns="http://www.w3.org/2000/svg" viewBox="0 0 800 320" role="img" aria-label="Astro">
  <defs>
    <linearGradient id="astroBg" x1="0%" y1="0%" x2="100%" y2="100%">
      <stop offset="0%" stop-color="#1b1129"/>
      <stop offset="55%" stop-color="#3a2150"/>
      <stop offset="100%" stop-color="#6d3bd1"/>
    </linearGradient>
  </defs>
  <rect width="800" height="320" fill="url(#astroBg)"/>
  <g transform="translate(225,85) scale(0.41)">
    <path d="M182.022 9.147c2.982 3.702 4.502 8.697 7.543 18.687l66.435 218.32a276.385 276.385 0 0 0-79.426-26.81L132.66 70.78a5.534 5.534 0 0 0-10.628.043L79.91 219.295a276.412 276.412 0 0 0-79.748 26.851L66.943 27.804c3.043-9.972 4.565-14.958 7.547-18.657a24.585 24.585 0 0 1 9.94-7.348C88.832 0 94.049 0 104.481 0h47.04c10.445 0 15.667 0 20.064 1.798a24.585 24.585 0 0 1 9.937 7.349Z" fill="#ffffff"/>
    <path d="M189.043 256.679c-10.952 9.364-32.812 15.751-57.992 15.751-30.904 0-56.807-9.621-63.68-22.56-2.458 7.415-3.009 15.903-3.009 21.324 0 0-1.619 26.623 16.898 45.14 0-9.615 7.795-17.41 17.41-17.41 16.48 0 16.46 14.378 16.446 26.043l-.001 1.041c0 17.705 10.819 32.883 26.21 39.255a35.659 35.659 0 0 1-3.588-15.647c0-16.879 9.908-23.163 21.425-30.468 9.167-5.814 19.353-12.274 26.372-25.232a47.762 47.762 0 0 0 5.769-22.823c0-5.96-1.09-11.664-3.08-16.928a35.713 35.713 0 0 1-2.18 9.241Z" fill="#ffffff"/>
  </g>
  <text x="350" y="195" font-family="-apple-system, BlinkMacSystemFont, 'Segoe UI', sans-serif" font-size="80" font-weight="700" fill="#ffffff">Astro</text>
</svg>